<svg width="32" height="32" viewBox="0 0 32 32" fill="none" xmlns="http://www.w3.org/2000/svg">
<circle cx="16" cy="16" r="15.5" fill="#F0FDF4" stroke="#16A34A"/>
<path d="M16.0643 11.888L16.2051 10.4376C16.2608 9.85475 16.8051 9.45924 17.3549 9.60128C18.182 9.81557 18.7631 10.5839 18.7631 11.465V13.3231C18.7631 13.7364 18.7631 13.9433 18.8525 14.0945C18.9033 14.1809 18.9731 14.2537 19.0563 14.3058C19.2033 14.3982 19.4035 14.3982 19.8033 14.3982H20.0457C21.0884 14.3982 21.6094 14.3982 21.9302 14.637C22.1708 14.8164 22.3404 15.079 22.4078 15.3766C22.4972 15.7745 22.2969 16.2723 21.8959 17.2666L21.6963 17.7625C21.5806 18.0497 21.5332 18.3599 21.558 18.6686C21.7 20.4282 20.3047 21.9105 18.599 21.8131L12.2169 21.4464C11.5196 21.4066 11.1712 21.3864 10.8565 21.1078C10.5412 20.8292 10.4818 20.5421 10.3637 19.9684C10.1122 18.748 10.1237 17.488 10.3974 16.2723C10.5706 15.5082 11.3004 15.0968 12.0541 15.1948C14.0525 15.4519 15.8641 13.958 16.0643 11.888Z" stroke="#009189" stroke-width="0.938776" stroke-linecap="round" stroke-linejoin="round"/>
<path d="M13.2449 15.3887L13.161 15.6685C12.618 17.4786 12.6473 19.4122 13.2449 21.205" stroke="#009189" stroke-width="0.938776" stroke-linecap="round" stroke-linejoin="round"/>
</svg>
