<svg width="32" height="32" viewBox="0 0 32 32" fill="none" xmlns="http://www.w3.org/2000/svg">
<circle cx="16" cy="16" r="15.5" fill="#FEF2F2" stroke="#DC2626"/>
<path d="M16.548 19.5007L16.4071 20.9511C16.3514 21.5339 15.8071 21.9294 15.2574 21.7874C14.4302 21.5731 13.8492 20.8047 13.8492 19.9237V18.0656C13.8492 17.6523 13.8492 17.4454 13.7598 17.2941C13.709 17.2078 13.6392 17.1349 13.5559 17.0829C13.409 16.9905 13.2088 16.9905 12.809 16.9905H12.5665C11.5239 16.9905 11.0029 16.9905 10.682 16.7517C10.4414 16.5723 10.2718 16.3096 10.2045 16.0121C10.1151 15.6141 10.3153 15.1164 10.7163 14.1221L10.9159 13.6262C11.0317 13.3389 11.0791 13.0287 11.0543 12.72C10.9123 10.9605 12.3076 9.47821 14.0133 9.57555L20.3953 9.94229C21.0927 9.98208 21.441 10.0023 21.7557 10.2809C22.071 10.5594 22.1304 10.8466 22.2486 11.4202C22.5001 12.6407 22.4886 13.9007 22.2149 15.1164C22.0416 15.8805 21.3118 16.2919 20.5582 16.1939C18.5598 15.9368 16.7482 17.4307 16.548 19.5007Z" stroke="#DC2626" stroke-width="0.938776" stroke-linecap="round" stroke-linejoin="round"/>
<path d="M19.3674 16L19.4512 15.7202C19.9942 13.9101 19.9649 11.9765 19.3674 10.1837" stroke="#DC2626" stroke-width="0.938776" stroke-linecap="round" stroke-linejoin="round"/>
</svg>
